<?xml version="1.0" ?><svg contentScriptType="text/ecmascript" contentStyleType="text/css" enable-background="new 0 0 2048 2048" height="2048px" id="Layer_1" preserveAspectRatio="xMidYMid meet" version="1.1" viewBox="0.0 0 1536.0 2048" width="1536.0px" xml:space="preserve" xmlns="http://www.w3.org/2000/svg" xmlns:xlink="http://www.w3.org/1999/xlink" zoomAndPan="magnify"><path fill="#969696" d="M1171,941l-422,422c-12.667,12.667-27.667,19-45,19s-32.333-6.333-45-19l-294-294c-12.667-12.667-19-27.667-19-45  c0-17.333,6.333-32.333,19-45l102-102c12.667-12.667,27.667-19,45-19c17.333,0,32.333,6.333,45,19l147,147l275-275  c12.667-12.667,27.667-19,45-19c17.333,0,32.333,6.333,45,19l102,102c12.667,12.667,19,27.667,19,45S1183.667,928.333,1171,941z   M1312,1024c0-98.667-24.333-189.667-73-273s-114.667-149.333-198-198s-174.333-73-273-73s-189.667,24.333-273,73  S345.667,667.667,297,751s-73,174.333-73,273s24.333,189.667,73,273s114.667,149.333,198,198s174.333,73,273,73  s189.667-24.333,273-73s149.333-114.667,198-198S1312,1122.667,1312,1024z M1536,1024c0,139.333-34.333,267.833-103,385.5  s-161.833,210.833-279.5,279.5S907.333,1792,768,1792s-267.833-34.333-385.5-103S171.667,1527.167,103,1409.5S0,1163.333,0,1024  s34.333-267.833,103-385.5S264.833,427.667,382.5,359S628.667,256,768,256s267.833,34.333,385.5,103s210.833,161.833,279.5,279.5  S1536,884.667,1536,1024z"/></svg>