<?xml version="1.0" encoding="UTF-8" standalone="no"?>
<svg xmlns="http://www.w3.org/2000/svg" version="1.1" viewBox="-148 300 1448 1448">
<path fill="#969696"
     d="m 704,1384 v 240 c 0,10.667 -4,20 -12,28 -8,8 -17.333,12 -28,12 H 424 c -10.667,0 -20,-4 -28,-12 -8,-8 -12,-17.333 -12,-28 v -240 c 0,-10.667 4,-20 12,-28 8,-8 17.333,-12 28,-12 h 240 c 10.667,0 20,4 28,12 8,8 12,17.333 12,28 z m 316,-600 c 0,36 -5.167,69.667 -15.5,101 -10.333,31.333 -22,56.833 -35,76.5 -13,19.667 -31.333,39.5 -55,59.5 -23.667,20 -42.833,34.5 -57.5,43.5 -14.667,9 -35,20.833 -61,35.5 -27.333,15.333 -50.167,37 -68.5,65 -18.333,28 -27.5,50.333 -27.5,67 0,11.333 -4,22.167 -12,32.5 -8,10.333 -17.333,15.5 -28,15.5 H 420 c -10,0 -18.5,-6.167 -25.5,-18.5 -7,-12.333 -10.5,-24.833 -10.5,-37.5 v -45 c 0,-55.333 21.667,-107.5 65,-156.5 43.333,-49 91,-85.167 143,-108.5 39.333,-18 67.333,-36.667 84,-56 16.667,-19.333 25,-44.667 25,-76 0,-28 -15.5,-52.667 -46.5,-74 -31,-21.333 -66.833,-32 -107.5,-32 -43.333,0 -79.333,9.667 -108,29 -23.333,16.667 -59,55 -107,115 -8.667,10.667 -19,16 -31,16 -8,0 -16.333,-2.667 -25,-8 L 112,703 c -8.667,-6.667 -13.833,-15 -15.5,-25 -1.667,-10 0.167,-19.333 5.5,-28 106.667,-177.333 261.333,-266 464,-266 53.333,0 107,10.333 161,31 54,20.667 102.667,48.333 146,83 43.333,34.667 78.667,77.167 106,127.5 27.333,50.333 41,103.167 41,158.5 z" />
 </svg>