<?xml version="1.0" encoding="UTF-8" standalone="no"?>
<svg xmlns="http://www.w3.org/2000/svg" version="1.1" >
   <path fill="#cccccc"
     d="m 896,1504 0,-192 c 0,-9.333 -3,-17 -9,-23 -6,-6 -13.667,-9 -23,-9 l -192,0 c -9.333,0 -17,3 -23,9 -6,6 -9,13.667 -9,23 l 0,192 c 0,9.333 3,17 9,23 6,6 13.667,9 23,9 l 192,0 c 9.333,0 17,-3 23,-9 6,-6 9,-13.667 9,-23 z m 256,-672 c 0,-58.667 -18.5,-113 -55.5,-163 -37,-50 -83.167,-88.667 -138.5,-116 -55.333,-27.333 -112,-41 -170,-41 -162,0 -285.667,71 -371,213 -10,16 -7.333,30 8,42 l 132,100 c 4.667,4 11,6 19,6 10.667,0 19,-4 25,-12 35.333,-45.333 64,-76 86,-92 22.667,-16 51.333,-24 86,-24 32,0 60.5,8.667 85.5,26 25,17.333 37.5,37 37.5,59 0,25.333 -6.667,45.667 -20,61 -13.333,15.333 -36,30.333 -68,45 -42,18.667 -80.5,47.5 -115.5,86.5 -35,39 -52.5,80.833 -52.5,125.5 l 0,36 c 0,9.333 3,17 9,23 6,6 13.667,9 23,9 l 192,0 c 9.333,0 17,-3 23,-9 6,-6 9,-13.667 9,-23 0,-12.667 7.167,-29.167 21.5,-49.5 14.333,-20.333 32.5,-36.833 54.5,-49.5 21.333,-12 37.667,-21.5 49,-28.5 11.333,-7 26.667,-18.667 46,-35 19.333,-16.333 34.167,-32.333 44.5,-48 10.333,-15.667 19.667,-35.833 28,-60.5 8.333,-24.667 12.5,-51.667 12.5,-81 z m 265.9987,841.9987 -1299.9974,0 0,-1299.9974 1299.9974,0 z" />
 </svg>