<?xml version="1.0" ?><svg contentScriptType="text/ecmascript" contentStyleType="text/css" enable-background="new 0 0 2048 2048" height="2048px" id="Layer_1" preserveAspectRatio="xMidYMid meet" version="1.1" viewBox="0.0 0 1920.0 2048" width="1920.0px" xml:space="preserve" xmlns="http://www.w3.org/2000/svg" xmlns:xlink="http://www.w3.org/1999/xlink" zoomAndPan="magnify"><path fill="#969696" d="M832,1216v-128c0-9.333-3-17-9-23s-13.667-9-23-9H608V864c0-9.333-3-17-9-23s-13.667-9-23-9H448c-9.333,0-17,3-23,9  s-9,13.667-9,23v192H224c-9.333,0-17,3-23,9s-9,13.667-9,23v128c0,9.333,3,17,9,23s13.667,9,23,9h192v192c0,9.333,3,17,9,23  s13.667,9,23,9h128c9.333,0,17-3,23-9s9-13.667,9-23v-192h192c9.333,0,17-3,23-9S832,1225.333,832,1216z M1408,1280  c0-35.333-12.5-65.5-37.5-90.5s-55.167-37.5-90.5-37.5s-65.5,12.5-90.5,37.5s-37.5,55.167-37.5,90.5s12.5,65.5,37.5,90.5  s55.167,37.5,90.5,37.5s65.5-12.5,90.5-37.5S1408,1315.333,1408,1280z M1664,1024c0-35.333-12.5-65.5-37.5-90.5  S1571.333,896,1536,896s-65.5,12.5-90.5,37.5s-37.5,55.167-37.5,90.5c0,35.333,12.5,65.5,37.5,90.5s55.167,37.5,90.5,37.5  s65.5-12.5,90.5-37.5S1664,1059.333,1664,1024z M1920,1152c0,141.333-50,262-150,362s-220.667,150-362,150  c-128,0-240.667-42.667-338-128H850c-97.333,85.333-210,128-338,128c-141.333,0-262-50-362-150S0,1293.333,0,1152s50-262,150-362  s220.667-150,362-150h896c141.333,0,262,50,362,150S1920,1010.667,1920,1152z"/></svg>