<?xml version="1.0" encoding="UTF-8" standalone="no"?>
<!-- Created with Inkscape (http://www.inkscape.org/) -->

<svg
   xmlns:dc="http://purl.org/dc/elements/1.1/"
   xmlns:cc="http://creativecommons.org/ns#"
   xmlns:rdf="http://www.w3.org/1999/02/22-rdf-syntax-ns#"
   xmlns:svg="http://www.w3.org/2000/svg"
   xmlns="http://www.w3.org/2000/svg"
   xmlns:xlink="http://www.w3.org/1999/xlink"
   version="1.1"
   width="32"
   height="28.750999"
   viewBox="0 0 32 28.751"
   id="Layer_1"
   xml:space="preserve"><metadata
   id="metadata3030"><rdf:RDF><cc:Work
       rdf:about=""><dc:format>image/svg+xml</dc:format><dc:type
         rdf:resource="http://purl.org/dc/dcmitype/StillImage" /><dc:title></dc:title></cc:Work></rdf:RDF></metadata><defs
   id="defs3028"><linearGradient
     id="linearGradient6485"><stop
       id="stop6487"
       style="stop-color:#000000;stop-opacity:1"
       offset="0" /><stop
       id="stop6489"
       style="stop-color:#000000;stop-opacity:0"
       offset="1" /></linearGradient><radialGradient
     cx="11.585043"
     cy="23.59"
     r="11.585043"
     fx="11.585043"
     fy="23.59"
     id="radialGradient6491"
     xlink:href="#linearGradient6485"
     gradientUnits="userSpaceOnUse"
     gradientTransform="matrix(1,0,0,0.44548821,0,13.080933)" /></defs>
<g
   id="g2986"
   style="fill:#969696;fill-opacity:1">
	
	
	<path
   d="m 21.739,19.208 c -1.271,0.617 -5.701,2.215 -5.701,2.215 l -5.236,-0.328 c 0,0 2.995,-0.833 4.156,-1.094 1.163,-0.26 0.657,-1.572 0.014,-1.572 -0.643,0 -6.247,0.232 -6.247,0.232 l -3.721,1.34 0.985,6.234 c 0,0 0.766,-1.312 1.53,-1.312 0.767,0 7.411,0.177 8.313,0 0.902,-0.179 6.398,-3.938 7.056,-4.377 0.656,-0.437 0.125,-1.956 -1.149,-1.338 z"
   id="path2992"
   style="fill:#969696;fill-opacity:1" />
	<polygon
   points="0,28.751 5.701,27.684 4.275,19.919 0,20.671 "
   id="polygon2994"
   style="fill:#969696;fill-opacity:1" />
</g>
<g
   id="g2996">
</g>
<g
   id="g2998">
</g>
<g
   id="g3000">
</g>
<g
   id="g3002">
</g>
<g
   id="g3004">
</g>
<g
   id="g3006">
</g>
<g
   id="g3008">
</g>
<g
   id="g3010">
</g>
<g
   id="g3012">
</g>
<g
   id="g3014">
</g>
<g
   id="g3016">
</g>
<g
   id="g3018">
</g>
<g
   id="g3020">
</g>
<g
   id="g3022">
</g>
<g
   id="g3024">
</g>
<path
   d="M 14.518974,10.885892 V 9.3435016 c 0,-0.1124621 -0.03615,-0.2048485 -0.10845,-0.2771482 -0.0723,-0.072303 -0.164686,-0.1084495 -0.277148,-0.1084495 H 11.819791 V 6.6443184 c 0,-0.1124613 -0.03615,-0.2048485 -0.10845,-0.2771482 -0.0723,-0.072303 -0.164685,-0.1084487 -0.277147,-0.1084487 H 9.8918033 c -0.1124618,0 -0.2048487,0.036148 -0.2771482,0.1084487 -0.0723,0.072303 -0.1084493,0.1646869 -0.1084493,0.2771482 V 8.9579039 H 7.1926204 c -0.1124622,0 -0.2048494,0.036148 -0.2771483,0.1084495 -0.072303,0.072303 -0.1084495,0.1646861 -0.1084495,0.2771482 v 1.5423904 c 0,0.112462 0.036147,0.204849 0.1084495,0.277148 0.072303,0.0723 0.1646861,0.108449 0.2771483,0.108449 h 2.3135854 v 2.313586 c 0,0.112462 0.03615,0.204848 0.1084493,0.277148 0.0723,0.0723 0.1646864,0.108449 0.2771482,0.108449 h 1.5423907 c 0.112462,0 0.204848,-0.03615 0.277147,-0.108449 0.0723,-0.0723 0.10845,-0.164686 0.10845,-0.277148 v -2.313586 h 2.313585 c 0.112462,0 0.204849,-0.03615 0.277148,-0.108449 0.0723,-0.0723 0.10845,-0.164686 0.10845,-0.277148 z m 6.940756,0.771195 c 0,-0.42576 -0.150624,-0.78927 -0.451872,-1.090518 -0.301249,-0.301248 -0.664758,-0.451872 -1.090519,-0.451872 -0.425759,0 -0.789269,0.150624 -1.090517,0.451872 -0.301248,0.301248 -0.451873,0.664758 -0.451873,1.090518 0,0.42576 0.150625,0.78927 0.451873,1.090518 0.301248,0.301249 0.664758,0.451872 1.090517,0.451872 0.425761,0 0.78927,-0.150623 1.090519,-0.451872 0.301248,-0.301248 0.451872,-0.664758 0.451872,-1.090518 z m 3.08478,-3.0847808 c 0,-0.4257594 -0.150623,-0.7892692 -0.451871,-1.0905175 C 23.79139,7.1805403 23.42788,7.0299162 23.00212,7.0299162 c -0.42576,0 -0.78927,0.1506241 -1.090518,0.4518725 -0.301248,0.3012483 -0.451872,0.6647581 -0.451872,1.0905175 0,0.4257601 0.150624,0.7892707 0.451872,1.0905183 0.301248,0.3012485 0.664758,0.4518725 1.090518,0.4518725 0.42576,0 0.78927,-0.150624 1.090519,-0.4518725 0.301248,-0.3012476 0.451871,-0.6647582 0.451871,-1.0905183 z m 3.084781,1.5423908 c 0,1.703052 -0.602496,3.15708 -1.807488,4.362072 -1.204993,1.204993 -2.659021,1.807489 -4.362073,1.807489 -1.542391,0 -2.90002,-0.514134 -4.072874,-1.54239 h -2.650984 c -1.172855,1.028256 -2.530484,1.54239 -4.072874,1.54239 -1.7030515,0 -3.1570796,-0.602496 -4.3620722,-1.807489 -1.2049927,-1.204992 -1.8074886,-2.65902 -1.8074886,-4.362072 0,-1.7030525 0.6024959,-3.1570805 1.8074886,-4.3620724 C 7.5059184,4.547632 8.9599465,3.9451361 10.662998,3.9451361 H 21.45973 c 1.703052,0 3.15708,0.6024959 4.362073,1.8074885 1.204992,1.2049919 1.807488,2.6590199 1.807488,4.3620724 z"
   id="path4868"
   style="fill:#969696;fill-opacity:1" /></svg>