<?xml version="1.0" ?><svg contentScriptType="text/ecmascript" contentStyleType="text/css" preserveAspectRatio="xMidYMid meet" version="1.1" xmlns="http://www.w3.org/2000/svg"><path fill="#969696" d="M320,896h512V704c0-70.667-25-131-75-181s-110.333-75-181-75s-131,25-181,75s-75,110.333-75,181V896z M1152,992v576  c0,26.667-9.333,49.333-28,68s-41.333,28-68,28H96c-26.667,0-49.333-9.333-68-28s-28-41.333-28-68V992c0-26.667,9.333-49.333,28-68  s41.333-28,68-28h32V704c0-122.667,44-228,132-316s193.333-132,316-132s228,44,316,132s132,193.333,132,316v192h32  c26.667,0,49.333,9.333,68,28S1152,965.333,1152,992z"/></svg>