<?xml version="1.0" ?><svg contentScriptType="text/ecmascript" contentStyleType="text/css" enable-background="new 0 0 2048 2048" height="2048px" id="Layer_1" preserveAspectRatio="xMidYMid meet" version="1.1" viewBox="200 0 1550.0 2048" width="1550.0px" xml:space="preserve" xmlns="http://www.w3.org/2000/svg" xmlns:xlink="http://www.w3.org/1999/xlink" zoomAndPan="magnify"><path fill="#969696" d="M1671,694c0,26.667-9.333,49.333-28,68l-724,724l-136,136c-18.667,18.667-41.333,28-68,28s-49.333-9.333-68-28l-136-136  l-362-362c-18.667-18.667-28-41.333-28-68s9.333-49.333,28-68l136-136c18.667-18.667,41.333-28,68-28s49.333,9.333,68,28l294,295  l656-657c18.667-18.667,41.333-28,68-28s49.333,9.333,68,28l136,136C1661.667,644.667,1671,667.333,1671,694z"/></svg>