<?xml version="1.0" ?><svg contentScriptType="text/ecmascript" contentStyleType="text/css" preserveAspectRatio="xMidYMid meet" version="1.1" xmlns="http://www.w3.org/2000/svg"><path fill="#969696" d="M1056,896c26.667,0,49.333,9.333,68,28s28,41.333,28,68v576c0,26.667-9.333,49.333-28,68s-41.333,28-68,28H96  c-26.667,0-49.333-9.333-68-28s-28-41.333-28-68V992c0-26.667,9.333-49.333,28-68s41.333-28,68-28h32V576  c0-123.333,43.833-228.833,131.5-316.5S452.667,128,576,128s228.833,43.833,316.5,131.5S1024,452.667,1024,576  c0,17.333-6.333,32.333-19,45s-27.667,19-45,19h-64c-17.333,0-32.333-6.333-45-19s-19-27.667-19-45c0-70.667-25-131-75-181  s-110.333-75-181-75s-131,25-181,75s-75,110.333-75,181v320H1056z"/></svg>